<?xml version="1.0" encoding="UTF-8"?>
<svg version="1.1" xmlns="http://www.w3.org/2000/svg" width="400" height="382">
<path d="M0 0 C0.79030609 0.00215515 1.58061218 0.0043103 2.39486694 0.00653076 C14.59449423 0.05979685 26.37742387 0.59209457 38.3125 3.3125 C39.21145996 3.51117676 40.11041992 3.70985352 41.03662109 3.91455078 C91.41419959 15.31161353 134.81279542 45.36005183 162.671875 88.94726562 C181.88518247 119.89904044 191.8049387 154.54465763 191.625 190.9375 C191.62284485 191.72586243 191.6206897 192.51422485 191.61846924 193.32647705 C191.44532117 232.9153326 179.41658616 270.97968668 156.3125 303.3125 C153.51275293 300.66829443 151.39320155 298.10826913 149.421875 294.8046875 C148.8858667 293.91434814 148.3498584 293.02400879 147.79760742 292.10668945 C147.22502197 291.14335693 146.65243652 290.18002441 146.0625 289.1875 C144.80411233 287.09461484 143.54496947 285.00218361 142.28515625 282.91015625 C141.6317627 281.82234863 140.97836914 280.73454102 140.30517578 279.61376953 C137.0742397 274.26107195 133.78552176 268.94430029 130.5 263.625 C124.53820283 253.95624356 118.62683095 244.25816775 112.74057007 234.54336548 C107.63121072 226.1123334 102.48783247 217.70327571 97.3125 209.3125 C91.41287813 199.74743259 85.56332782 190.1534202 79.73974609 180.54199219 C74.63066031 172.11141874 69.48755211 163.70282117 64.3125 155.3125 C58.41287813 145.74743259 52.56332782 136.1534202 46.73974609 126.54199219 C40.98689825 117.04913802 35.18379737 107.5883209 29.35620117 98.14111328 C23.51989048 88.67076409 17.7431465 79.16488299 11.98242188 69.6484375 C11.31404297 68.545 10.64566406 67.4415625 9.95703125 66.3046875 C9.37284424 65.33901855 8.78865723 64.37334961 8.18676758 63.37841797 C6.70253939 60.95052457 5.20468411 58.53314551 3.69535828 56.12088013 C3.02463303 55.04862781 3.02463303 55.04862781 2.34035778 53.95471382 C2.00116471 53.41278326 1.66197165 52.8708527 1.3125 52.3125 C1.31228263 52.93427037 1.31206526 53.55604075 1.31184131 54.19665265 C1.29831641 91.07305144 1.258791 127.9493376 1.18564438 164.82566805 C1.17687795 169.2564997 1.16832809 173.68733174 1.15991211 178.11816406 C1.15823305 179.00023831 1.15655398 179.88231256 1.15482404 180.79111633 C1.12817663 195.0611059 1.11906058 209.33105531 1.11645857 223.60106722 C1.11339579 238.25066199 1.09141155 252.90014089 1.05197543 267.54968333 C1.0282471 276.58444141 1.01916071 285.61896797 1.02898689 294.65375289 C1.03431528 300.85483774 1.02121333 307.05571572 0.9938371 313.25674167 C0.97859517 316.83094859 0.97126976 320.40469231 0.98590279 323.97891235 C1.00159314 327.86359154 0.97836412 331.74751007 0.95173645 335.63214111 C0.96240971 336.74890771 0.97308297 337.86567431 0.98407966 339.01628232 C0.85124827 349.44398713 -2.36854675 358.92911751 -9.66796875 366.5625 C-20.95664121 376.34456047 -33.3833113 377.47129466 -47.73876953 376.63232422 C-78.83686012 373.25937351 -110.19953554 350.74627632 -132.25537109 329.67724609 C-133.63449053 328.36301533 -135.02985213 327.06589339 -136.42578125 325.76953125 C-168.79774464 294.80300766 -189.7556731 247.68943675 -190.9524231 202.87884521 C-191.01348817 199.12711125 -191.01806757 195.37711406 -191 191.625 C-190.99817719 190.83569092 -190.99635437 190.04638184 -190.99447632 189.2331543 C-190.94714483 177.03365712 -190.35588852 165.25573219 -187.6875 153.3125 C-187.51057617 152.48943359 -187.33365234 151.66636719 -187.15136719 150.81835938 C-179.50050385 115.85431036 -162.74837519 84.59744493 -138.05224609 58.74462891 C-136.73801533 57.36550947 -135.44089339 55.97014787 -134.14453125 54.57421875 C-99.71990769 18.58720683 -49.24024347 -0.24286667 0 0 Z " fill="#FF1919" transform="translate(199.6875,5.6875)"/>
</svg>
